<svg version="1" xmlns="http://www.w3.org/2000/svg" viewBox="0 0 512 512"><circle cx="256" cy="256" r="256" fill="#f9b54c"/><path d="M512 256L370 114 257 290 142 398l114 114c141 0 256-115 256-256z" fill="#f4a200"/><path fill="#e9eff4" d="M194 114l-52 51v233h228V114z"/><g fill="#cfdbe6"><path d="M255 114h114v284H255zM194 165v-51l-52 51z"/></g><g fill="#d0d1d3"><path d="M171 197h171v5H171zM171 225h171v5H171zM171 253h171v5H171zM171 282h171v5H171zM171 310h171v5H171zM275 354c-6 1-8-2-12-6l-2-3c-4-2-8 1-11 3l-10 5-9 5-4-13c-1-2-4-2-4 0l-4 8c-3 5-9 9-15 6-2 0-3-1-4-3 3-2 5-4 6-7 2-4 5-11 3-15s-5-4-8-2c-6 5-8 14-6 22-4 2-8 2-12-2-3-2-6 2-4 4 5 5 12 5 17 3l4 4c10 8 19-1 24-10l1 6 1 3c4 4 9 0 12-2l11-6c4-2 6-4 11-2l2 3c4 3 8 5 13 4 3 0 3-5 0-5zm-73-14c1-2 1-4 2-1l-2 7-3 4c0-4 1-8 3-10z"/></g><g fill="#a6a8aa"><path d="M255 197h86v5h-86zM255 225h86v5h-86zM255 253h86v5h-86zM255 282h86v5h-86zM255 310h86v5h-86zM275 354c-6 1-8-2-12-6l-2-3h-6v6l5 1 2 3c4 3 8 5 13 4 3 0 3-5 0-5z"/></g><path d="M304 334l-24-15 100-156c4-6 13-8 19-4 7 4 9 13 5 19L304 334z" fill="#324a5e"/><path d="M399 159L292 326l12 8 100-156c4-6 2-15-5-19z" fill="#2b3b4e"/><path fill="#f9b54c" d="M277 350l27-16-24-15z"/><path fill="#f4a200" d="M277 350l27-16-12-8z"/></svg>